<?xml version="1.0" encoding="UTF-8"?><!DOCTYPE svg PUBLIC "-//W3C//DTD SVG 1.1//EN" "http://www.w3.org/Graphics/SVG/1.1/DTD/svg11.dtd"><svg xmlns="http://www.w3.org/2000/svg" xmlns:xlink="http://www.w3.org/1999/xlink"><defs/><symbol id="cancel" viewBox="0 0 512.001 512.001"><g><g><path d="M284.286 256.002 506.143 34.144c7.811-7.811 7.811-20.475 0-28.285-7.811-7.81-20.475-7.811-28.285 0L256 227.717 34.143 5.859c-7.811-7.811-20.475-7.811-28.285 0-7.81 7.811-7.811 20.475 0 28.285l221.857 221.857L5.858 477.859c-7.811 7.811-7.811 20.475 0 28.285 3.905 3.905 9.024 5.857 14.143 5.857 5.119 0 10.237-1.952 14.143-5.857L256 284.287l221.857 221.857c3.905 3.905 9.024 5.857 14.143 5.857s10.237-1.952 14.143-5.857c7.811-7.811 7.811-20.475 0-28.285L284.286 256.002z"/></g></g><g></g><g></g><g></g><g></g><g></g><g></g><g></g><g></g><g></g><g></g><g></g><g></g><g></g><g></g><g></g></symbol><symbol id="envelope" viewBox="0 0 512 512"><g><g><path d="M469.333 64H42.667C19.135 64 0 83.135 0 106.667v298.667C0 428.865 19.135 448 42.667 448h426.667C492.865 448 512 428.865 512 405.333V106.667C512 83.135 492.865 64 469.333 64zM42.667 85.333h426.667c1.572 0 2.957.573 4.432.897-36.939 33.807-159.423 145.859-202.286 184.478-3.354 3.021-8.76 6.625-15.479 6.625s-12.125-3.604-15.49-6.635C197.652 232.085 75.161 120.027 38.228 86.232 39.706 85.908 41.094 85.333 42.667 85.333zM21.333 405.333V106.667c0-2.09.63-3.986 1.194-5.896 28.272 25.876 113.736 104.06 169.152 154.453C136.443 302.671 50.957 383.719 22.46 410.893 21.957 409.079 21.333 407.305 21.333 405.333zM469.333 426.667H42.667c-1.704 0-3.219-.594-4.81-.974 29.447-28.072 115.477-109.586 169.742-156.009 7.074 6.417 13.536 12.268 18.63 16.858 8.792 7.938 19.083 12.125 29.771 12.125s20.979-4.188 29.76-12.115c5.096-4.592 11.563-10.448 18.641-16.868 54.268 46.418 140.286 127.926 169.742 156.009C472.552 426.073 471.039 426.667 469.333 426.667zM490.667 405.333c0 1.971-.624 3.746-1.126 5.56-28.508-27.188-113.984-108.227-169.219-155.668 55.418-50.393 140.869-128.57 169.151-154.456.564 1.91 1.194 3.807 1.194 5.897V405.333z"/></g></g><g></g><g></g><g></g><g></g><g></g><g></g><g></g><g></g><g></g><g></g><g></g><g></g><g></g><g></g><g></g></symbol><symbol id="facebook" viewBox="0 0 512 512"><path style="fill:#1976D2;" d="M448 0H64C28.704 0 0 28.704 0 64v384c0 35.296 28.704 64 64 64h384c35.296 0 64-28.704 64-64V64C512 28.704 483.296 0 448 0z"/><path style="fill:#FAFAFA;" d="M432 256h-80v-64c0-17.664 14.336-16 32-16h32V96h-64l0 0c-53.024 0-96 42.976-96 96v64h-64v80h64v176h96V336h48L432 256z"/><g></g><g></g><g></g><g></g><g></g><g></g><g></g><g></g><g></g><g></g><g></g><g></g><g></g><g></g><g></g></symbol><symbol id="location" viewBox="0 0 512 512"><g><g><path d="M256 0C156.748 0 76 80.748 76 180c0 33.534 9.289 66.26 26.869 94.652l142.885 230.257c2.737 4.411 7.559 7.091 12.745 7.091.04 0 .079 0 .119 0 5.231-.041 10.063-2.804 12.75-7.292L410.611 272.22C427.221 244.428 436 212.539 436 180 436 80.748 355.252 0 256 0zM384.866 256.818 258.272 468.186l-129.905-209.34C113.734 235.214 105.8 207.95 105.8 180c0-82.71 67.49-150.2 150.2-150.2S406.1 97.29 406.1 180C406.1 207.121 398.689 233.688 384.866 256.818z"/></g></g><g><g><path d="M256 90c-49.626 0-90 40.374-90 90 0 49.309 39.717 90 90 90 50.903 0 90-41.233 90-90C346 130.374 305.626 90 256 90zM256 240.2c-33.257 0-60.2-27.033-60.2-60.2 0-33.084 27.116-60.2 60.2-60.2s60.1 27.116 60.1 60.2C316.1 212.683 289.784 240.2 256 240.2z"/></g></g><g></g><g></g><g></g><g></g><g></g><g></g><g></g><g></g><g></g><g></g><g></g><g></g><g></g><g></g><g></g></symbol><symbol id="phone" viewBox="0 0 512.076 512.076"><g transform="translate(-1 -1)"><g><g><path d="M499.639 396.039l-103.646-69.12c-13.153-8.701-30.784-5.838-40.508 6.579l-30.191 38.818c-3.88 5.116-10.933 6.6-16.546 3.482l-5.743-3.166c-19.038-10.377-42.726-23.296-90.453-71.04s-60.672-71.45-71.049-90.453l-3.149-5.743c-3.161-5.612-1.705-12.695 3.413-16.606l38.792-30.182c12.412-9.725 15.279-27.351 6.588-40.508l-69.12-103.646C109.12 1.056 91.25-2.966 77.461 5.323L34.12 31.358C20.502 39.364 10.511 52.33 6.242 67.539c-15.607 56.866-3.866 155.008 140.706 299.597 115.004 114.995 200.619 145.92 259.465 145.92 13.543.058 27.033-1.704 40.107-5.239 15.212-4.264 28.18-14.256 36.181-27.878l26.061-43.315C517.063 422.832 513.043 404.951 499.639 396.039zM494.058 427.868l-26.001 43.341c-5.745 9.832-15.072 17.061-26.027 20.173-52.497 14.413-144.213 2.475-283.008-136.32S8.29 124.559 22.703 72.054c3.116-10.968 10.354-20.307 20.198-26.061l43.341-26.001c5.983-3.6 13.739-1.855 17.604 3.959l37.547 56.371 31.514 47.266c3.774 5.707 2.534 13.356-2.85 17.579l-38.801 30.182c-11.808 9.029-15.18 25.366-7.91 38.332l3.081 5.598c10.906 20.002 24.465 44.885 73.967 94.379 49.502 49.493 74.377 63.053 94.37 73.958l5.606 3.089c12.965 7.269 29.303 3.898 38.332-7.91l30.182-38.801c4.224-5.381 11.87-6.62 17.579-2.85l103.637 69.12C495.918 414.126 497.663 421.886 494.058 427.868z"/><path d="M291.161 86.39c80.081.089 144.977 64.986 145.067 145.067 0 4.713 3.82 8.533 8.533 8.533s8.533-3.82 8.533-8.533c-.099-89.503-72.63-162.035-162.133-162.133-4.713 0-8.533 3.82-8.533 8.533S286.448 86.39 291.161 86.39z"/><path d="M291.161 137.59c51.816.061 93.806 42.051 93.867 93.867 0 4.713 3.821 8.533 8.533 8.533 4.713 0 8.533-3.82 8.533-8.533-.071-61.238-49.696-110.863-110.933-110.933-4.713 0-8.533 3.82-8.533 8.533S286.448 137.59 291.161 137.59z"/><path d="M291.161 188.79c23.552.028 42.638 19.114 42.667 42.667 0 4.713 3.821 8.533 8.533 8.533s8.533-3.82 8.533-8.533c-.038-32.974-26.759-59.696-59.733-59.733-4.713 0-8.533 3.82-8.533 8.533S286.448 188.79 291.161 188.79z"/></g></g></g><g></g><g></g><g></g><g></g><g></g><g></g><g></g><g></g><g></g><g></g><g></g><g></g><g></g><g></g><g></g></symbol><symbol id="play" viewBox="0 0 512 512"><g><g><path d="M477.606 128.055C443.431 68.863 388.251 26.52 322.229 8.83 256.208-8.862 187.25.217 128.055 34.394 68.861 68.57 26.52 123.75 8.83 189.772c-17.69 66.021-8.611 134.981 25.564 194.173C68.568 443.137 123.75 485.48 189.771 503.17c22.046 5.908 44.417 8.83 66.646 8.83 44.339 0 88.101-11.629 127.529-34.393 59.192-34.175 101.535-89.355 119.225-155.377C520.862 256.207 511.781 187.249 477.606 128.055zM477.429 315.333c-15.848 59.146-53.78 108.581-106.81 139.197-53.028 30.617-114.806 38.749-173.952 22.903-59.147-15.848-108.581-53.78-139.198-106.81-30.616-53.028-38.749-114.807-22.9-173.954C50.418 137.523 88.35 88.09 141.379 57.472c35.325-20.395 74.524-30.812 114.249-30.812 19.91 0 39.959 2.618 59.702 7.909 59.146 15.848 108.581 53.78 139.197 106.81C485.144 194.408 493.278 256.186 477.429 315.333z"/></g></g><g><g><path d="M378.778 231.852l-164.526-94.99c-8.731-5.041-19.155-5.039-27.886-.001-8.731 5.04-13.944 14.069-13.944 24.15v189.98c0 10.081 5.212 19.109 13.944 24.15 4.365 2.521 9.152 3.78 13.941 3.78 4.79 0 9.579-1.262 13.944-3.781l164.528-94.989c8.73-5.042 13.941-14.07 13.941-24.151C392.72 245.92 387.508 236.892 378.778 231.852zM365.452 257.074l-164.527 94.989c-.201.117-.62.358-1.236 0-.618-.357-.618-.839-.618-1.071v-189.98c0-.232 0-.714.618-1.071.242-.14.453-.188.633-.188.28 0 .482.117.605.188l164.526 94.99c.201.116.618.357.618 1.071C366.071 256.716 365.652 256.958 365.452 257.074z"/></g></g><g><g><path d="M413.303 134.44c-31.689-40.938-79.326-68.442-130.698-75.461-7.283-.997-14.009 4.106-15.006 11.399-.995 7.291 4.108 14.009 11.399 15.006 44.512 6.081 85.783 29.909 113.232 65.369 2.626 3.392 6.565 5.168 10.546 5.168 2.849 0 5.72-.909 8.146-2.789C416.741 148.628 417.807 140.259 413.303 134.44z"/></g></g><g></g><g></g><g></g><g></g><g></g><g></g><g></g><g></g><g></g><g></g><g></g><g></g><g></g><g></g><g></g></symbol><symbol id="right-arrow" viewBox="0 0 490.8 490.8"><g><path style="fill:#009688;" d="M231.696 3.128c-4.237-4.093-10.99-3.975-15.083.262-3.992 4.134-3.992 10.687 0 14.82l227.115 227.136L216.592 472.461c-4.237 4.093-4.355 10.845-.262 15.083 4.093 4.237 10.845 4.354 15.083.262.089-.086.176-.173.262-.262l234.667-234.667c4.164-4.165 4.164-10.917 0-15.083L231.696 3.128z"/><path style="fill:#009688;" d="M274.363 237.795 39.696 3.128c-4.237-4.093-10.99-3.975-15.083.262-3.992 4.134-3.992 10.687 0 14.821l227.115 227.136L24.592 472.461c-4.237 4.093-4.354 10.845-.262 15.083 4.093 4.237 10.845 4.354 15.083.262.089-.086.176-.173.262-.262l234.667-234.667C278.511 248.718 278.521 241.966 274.363 237.795z"/></g><path d="M224.144 490.68c-5.891.011-10.675-4.757-10.686-10.648-.005-2.84 1.123-5.565 3.134-7.571l227.136-227.115L216.592 18.232c-4.093-4.237-3.975-10.99.262-15.083 4.134-3.992 10.687-3.992 14.82 0l234.667 234.667c4.164 4.165 4.164 10.917 0 15.083L231.675 487.565C229.676 489.56 226.968 490.68 224.144 490.68z"/><path d="M32.144 490.68c-5.891.011-10.675-4.757-10.686-10.648-.005-2.84 1.123-5.565 3.134-7.571l227.136-227.115L24.592 18.232c-4.171-4.171-4.171-10.933 0-15.104s10.933-4.171 15.104 0l234.667 234.667c4.164 4.165 4.164 10.917 0 15.083L39.696 487.544C37.695 489.551 34.978 490.68 32.144 490.68z"/><g></g><g></g><g></g><g></g><g></g><g></g><g></g><g></g><g></g><g></g><g></g><g></g><g></g><g></g><g></g></symbol><symbol id="sprites"><symbol id="envelope" viewBox="0 0 512 512"><g><g><path d="M469.333 64H42.667C19.135 64 0 83.135 0 106.667v298.667C0 428.865 19.135 448 42.667 448h426.667C492.865 448 512 428.865 512 405.333V106.667C512 83.135 492.865 64 469.333 64zM42.667 85.333h426.667c1.572 0 2.957.573 4.432.897-36.939 33.807-159.423 145.859-202.286 184.478-3.354 3.021-8.76 6.625-15.479 6.625s-12.125-3.604-15.49-6.635C197.652 232.085 75.161 120.027 38.228 86.232 39.706 85.908 41.094 85.333 42.667 85.333zM21.333 405.333V106.667c0-2.09.63-3.986 1.194-5.896 28.272 25.876 113.736 104.06 169.152 154.453C136.443 302.671 50.957 383.719 22.46 410.893 21.957 409.079 21.333 407.305 21.333 405.333zM469.333 426.667H42.667c-1.704 0-3.219-.594-4.81-.974 29.447-28.072 115.477-109.586 169.742-156.009 7.074 6.417 13.536 12.268 18.63 16.858 8.792 7.938 19.083 12.125 29.771 12.125s20.979-4.188 29.76-12.115c5.096-4.592 11.563-10.448 18.641-16.868 54.268 46.418 140.286 127.926 169.742 156.009C472.552 426.073 471.039 426.667 469.333 426.667zM490.667 405.333c0 1.971-.624 3.746-1.126 5.56-28.508-27.188-113.984-108.227-169.219-155.668 55.418-50.393 140.869-128.57 169.151-154.456.564 1.91 1.194 3.807 1.194 5.897V405.333z"/></g></g><g/><g/><g/><g/><g/><g/><g/><g/><g/><g/><g/><g/><g/><g/><g/></symbol><symbol id="facebook" viewBox="0 0 512 512"><path style="fill:#1976D2;" d="M448 0H64C28.704 0 0 28.704 0 64v384c0 35.296 28.704 64 64 64h384c35.296 0 64-28.704 64-64V64C512 28.704 483.296 0 448 0z"/><path style="fill:#FAFAFA;" d="M432 256h-80v-64c0-17.664 14.336-16 32-16h32V96h-64l0 0c-53.024 0-96 42.976-96 96v64h-64v80h64v176h96V336h48L432 256z"/><g/><g/><g/><g/><g/><g/><g/><g/><g/><g/><g/><g/><g/><g/><g/></symbol><symbol id="location" viewBox="0 0 512 512"><g><g><path d="M256 0C156.748 0 76 80.748 76 180c0 33.534 9.289 66.26 26.869 94.652l142.885 230.257c2.737 4.411 7.559 7.091 12.745 7.091.04 0 .079 0 .119 0 5.231-.041 10.063-2.804 12.75-7.292L410.611 272.22C427.221 244.428 436 212.539 436 180 436 80.748 355.252 0 256 0zM384.866 256.818 258.272 468.186l-129.905-209.34C113.734 235.214 105.8 207.95 105.8 180c0-82.71 67.49-150.2 150.2-150.2S406.1 97.29 406.1 180C406.1 207.121 398.689 233.688 384.866 256.818z"/></g></g><g><g><path d="M256 90c-49.626 0-90 40.374-90 90 0 49.309 39.717 90 90 90 50.903 0 90-41.233 90-90C346 130.374 305.626 90 256 90zM256 240.2c-33.257 0-60.2-27.033-60.2-60.2 0-33.084 27.116-60.2 60.2-60.2s60.1 27.116 60.1 60.2C316.1 212.683 289.784 240.2 256 240.2z"/></g></g><g/><g/><g/><g/><g/><g/><g/><g/><g/><g/><g/><g/><g/><g/><g/></symbol><symbol id="phone" viewBox="0 0 512.076 512.076"><g transform="translate(-1 -1)"><g><g><path d="M499.639 396.039l-103.646-69.12c-13.153-8.701-30.784-5.838-40.508 6.579l-30.191 38.818c-3.88 5.116-10.933 6.6-16.546 3.482l-5.743-3.166c-19.038-10.377-42.726-23.296-90.453-71.04s-60.672-71.45-71.049-90.453l-3.149-5.743c-3.161-5.612-1.705-12.695 3.413-16.606l38.792-30.182c12.412-9.725 15.279-27.351 6.588-40.508l-69.12-103.646C109.12 1.056 91.25-2.966 77.461 5.323L34.12 31.358C20.502 39.364 10.511 52.33 6.242 67.539c-15.607 56.866-3.866 155.008 140.706 299.597 115.004 114.995 200.619 145.92 259.465 145.92 13.543.058 27.033-1.704 40.107-5.239 15.212-4.264 28.18-14.256 36.181-27.878l26.061-43.315C517.063 422.832 513.043 404.951 499.639 396.039zM494.058 427.868l-26.001 43.341c-5.745 9.832-15.072 17.061-26.027 20.173-52.497 14.413-144.213 2.475-283.008-136.32S8.29 124.559 22.703 72.054c3.116-10.968 10.354-20.307 20.198-26.061l43.341-26.001c5.983-3.6 13.739-1.855 17.604 3.959l37.547 56.371 31.514 47.266c3.774 5.707 2.534 13.356-2.85 17.579l-38.801 30.182c-11.808 9.029-15.18 25.366-7.91 38.332l3.081 5.598c10.906 20.002 24.465 44.885 73.967 94.379 49.502 49.493 74.377 63.053 94.37 73.958l5.606 3.089c12.965 7.269 29.303 3.898 38.332-7.91l30.182-38.801c4.224-5.381 11.87-6.62 17.579-2.85l103.637 69.12C495.918 414.126 497.663 421.886 494.058 427.868z"/><path d="M291.161 86.39c80.081.089 144.977 64.986 145.067 145.067 0 4.713 3.82 8.533 8.533 8.533s8.533-3.82 8.533-8.533c-.099-89.503-72.63-162.035-162.133-162.133-4.713 0-8.533 3.82-8.533 8.533S286.448 86.39 291.161 86.39z"/><path d="M291.161 137.59c51.816.061 93.806 42.051 93.867 93.867 0 4.713 3.821 8.533 8.533 8.533 4.713 0 8.533-3.82 8.533-8.533-.071-61.238-49.696-110.863-110.933-110.933-4.713 0-8.533 3.82-8.533 8.533S286.448 137.59 291.161 137.59z"/><path d="M291.161 188.79c23.552.028 42.638 19.114 42.667 42.667 0 4.713 3.821 8.533 8.533 8.533s8.533-3.82 8.533-8.533c-.038-32.974-26.759-59.696-59.733-59.733-4.713 0-8.533 3.82-8.533 8.533S286.448 188.79 291.161 188.79z"/></g></g></g><g/><g/><g/><g/><g/><g/><g/><g/><g/><g/><g/><g/><g/><g/><g/></symbol><symbol id="play" viewBox="0 0 512 512"><g><g><path d="M477.606 128.055C443.431 68.863 388.251 26.52 322.229 8.83 256.208-8.862 187.25.217 128.055 34.394 68.861 68.57 26.52 123.75 8.83 189.772c-17.69 66.021-8.611 134.981 25.564 194.173C68.568 443.137 123.75 485.48 189.771 503.17c22.046 5.908 44.417 8.83 66.646 8.83 44.339 0 88.101-11.629 127.529-34.393 59.192-34.175 101.535-89.355 119.225-155.377C520.862 256.207 511.781 187.249 477.606 128.055zM477.429 315.333c-15.848 59.146-53.78 108.581-106.81 139.197-53.028 30.617-114.806 38.749-173.952 22.903-59.147-15.848-108.581-53.78-139.198-106.81-30.616-53.028-38.749-114.807-22.9-173.954C50.418 137.523 88.35 88.09 141.379 57.472c35.325-20.395 74.524-30.812 114.249-30.812 19.91 0 39.959 2.618 59.702 7.909 59.146 15.848 108.581 53.78 139.197 106.81C485.144 194.408 493.278 256.186 477.429 315.333z"/></g></g><g><g><path d="M378.778 231.852l-164.526-94.99c-8.731-5.041-19.155-5.039-27.886-.001-8.731 5.04-13.944 14.069-13.944 24.15v189.98c0 10.081 5.212 19.109 13.944 24.15 4.365 2.521 9.152 3.78 13.941 3.78 4.79 0 9.579-1.262 13.944-3.781l164.528-94.989c8.73-5.042 13.941-14.07 13.941-24.151C392.72 245.92 387.508 236.892 378.778 231.852zM365.452 257.074l-164.527 94.989c-.201.117-.62.358-1.236 0-.618-.357-.618-.839-.618-1.071v-189.98c0-.232 0-.714.618-1.071.242-.14.453-.188.633-.188.28 0 .482.117.605.188l164.526 94.99c.201.116.618.357.618 1.071C366.071 256.716 365.652 256.958 365.452 257.074z"/></g></g><g><g><path d="M413.303 134.44c-31.689-40.938-79.326-68.442-130.698-75.461-7.283-.997-14.009 4.106-15.006 11.399-.995 7.291 4.108 14.009 11.399 15.006 44.512 6.081 85.783 29.909 113.232 65.369 2.626 3.392 6.565 5.168 10.546 5.168 2.849 0 5.72-.909 8.146-2.789C416.741 148.628 417.807 140.259 413.303 134.44z"/></g></g><g/><g/><g/><g/><g/><g/><g/><g/><g/><g/><g/><g/><g/><g/><g/></symbol><symbol id="right-arrow" viewBox="0 0 490.8 490.8"><g><path style="fill:#009688;" d="M231.696 3.128c-4.237-4.093-10.99-3.975-15.083.262-3.992 4.134-3.992 10.687 0 14.82l227.115 227.136L216.592 472.461c-4.237 4.093-4.355 10.845-.262 15.083 4.093 4.237 10.845 4.354 15.083.262.089-.086.176-.173.262-.262l234.667-234.667c4.164-4.165 4.164-10.917 0-15.083L231.696 3.128z"/><path style="fill:#009688;" d="M274.363 237.795 39.696 3.128c-4.237-4.093-10.99-3.975-15.083.262-3.992 4.134-3.992 10.687 0 14.821l227.115 227.136L24.592 472.461c-4.237 4.093-4.354 10.845-.262 15.083 4.093 4.237 10.845 4.354 15.083.262.089-.086.176-.173.262-.262l234.667-234.667C278.511 248.718 278.521 241.966 274.363 237.795z"/></g><path d="M224.144 490.68c-5.891.011-10.675-4.757-10.686-10.648-.005-2.84 1.123-5.565 3.134-7.571l227.136-227.115L216.592 18.232c-4.093-4.237-3.975-10.99.262-15.083 4.134-3.992 10.687-3.992 14.82 0l234.667 234.667c4.164 4.165 4.164 10.917 0 15.083L231.675 487.565C229.676 489.56 226.968 490.68 224.144 490.68z"/><path d="M32.144 490.68c-5.891.011-10.675-4.757-10.686-10.648-.005-2.84 1.123-5.565 3.134-7.571l227.136-227.115L24.592 18.232c-4.171-4.171-4.171-10.933 0-15.104s10.933-4.171 15.104 0l234.667 234.667c4.164 4.165 4.164 10.917 0 15.083L39.696 487.544C37.695 489.551 34.978 490.68 32.144 490.68z"/><g/><g/><g/><g/><g/><g/><g/><g/><g/><g/><g/><g/><g/><g/><g/></symbol><symbol id="sprites"><symbol id="envelope" viewBox="0 0 512 512"><g><g><path d="M469.333 64H42.667C19.135 64 0 83.135 0 106.667v298.667C0 428.865 19.135 448 42.667 448h426.667C492.865 448 512 428.865 512 405.333V106.667C512 83.135 492.865 64 469.333 64zM42.667 85.333h426.667c1.572 0 2.957.573 4.432.897-36.939 33.807-159.423 145.859-202.286 184.478-3.354 3.021-8.76 6.625-15.479 6.625s-12.125-3.604-15.49-6.635C197.652 232.085 75.161 120.027 38.228 86.232 39.706 85.908 41.094 85.333 42.667 85.333zM21.333 405.333V106.667c0-2.09.63-3.986 1.194-5.896 28.272 25.876 113.736 104.06 169.152 154.453C136.443 302.671 50.957 383.719 22.46 410.893 21.957 409.079 21.333 407.305 21.333 405.333zM469.333 426.667H42.667c-1.704 0-3.219-.594-4.81-.974 29.447-28.072 115.477-109.586 169.742-156.009 7.074 6.417 13.536 12.268 18.63 16.858 8.792 7.938 19.083 12.125 29.771 12.125s20.979-4.188 29.76-12.115c5.096-4.592 11.563-10.448 18.641-16.868 54.268 46.418 140.286 127.926 169.742 156.009C472.552 426.073 471.039 426.667 469.333 426.667zM490.667 405.333c0 1.971-.624 3.746-1.126 5.56-28.508-27.188-113.984-108.227-169.219-155.668 55.418-50.393 140.869-128.57 169.151-154.456.564 1.91 1.194 3.807 1.194 5.897V405.333z"/></g></g><g/><g/><g/><g/><g/><g/><g/><g/><g/><g/><g/><g/><g/><g/><g/></symbol><symbol id="location" viewBox="0 0 512 512"><g><g><path d="M256 0C156.748 0 76 80.748 76 180c0 33.534 9.289 66.26 26.869 94.652l142.885 230.257c2.737 4.411 7.559 7.091 12.745 7.091.04 0 .079 0 .119 0 5.231-.041 10.063-2.804 12.75-7.292L410.611 272.22C427.221 244.428 436 212.539 436 180 436 80.748 355.252 0 256 0zM384.866 256.818 258.272 468.186l-129.905-209.34C113.734 235.214 105.8 207.95 105.8 180c0-82.71 67.49-150.2 150.2-150.2S406.1 97.29 406.1 180C406.1 207.121 398.689 233.688 384.866 256.818z"/></g></g><g><g><path d="M256 90c-49.626 0-90 40.374-90 90 0 49.309 39.717 90 90 90 50.903 0 90-41.233 90-90C346 130.374 305.626 90 256 90zM256 240.2c-33.257 0-60.2-27.033-60.2-60.2 0-33.084 27.116-60.2 60.2-60.2s60.1 27.116 60.1 60.2C316.1 212.683 289.784 240.2 256 240.2z"/></g></g><g/><g/><g/><g/><g/><g/><g/><g/><g/><g/><g/><g/><g/><g/><g/></symbol><symbol id="phone" viewBox="0 0 512.076 512.076"><g transform="translate(-1 -1)"><g><g><path d="M499.639 396.039l-103.646-69.12c-13.153-8.701-30.784-5.838-40.508 6.579l-30.191 38.818c-3.88 5.116-10.933 6.6-16.546 3.482l-5.743-3.166c-19.038-10.377-42.726-23.296-90.453-71.04s-60.672-71.45-71.049-90.453l-3.149-5.743c-3.161-5.612-1.705-12.695 3.413-16.606l38.792-30.182c12.412-9.725 15.279-27.351 6.588-40.508l-69.12-103.646C109.12 1.056 91.25-2.966 77.461 5.323L34.12 31.358C20.502 39.364 10.511 52.33 6.242 67.539c-15.607 56.866-3.866 155.008 140.706 299.597 115.004 114.995 200.619 145.92 259.465 145.92 13.543.058 27.033-1.704 40.107-5.239 15.212-4.264 28.18-14.256 36.181-27.878l26.061-43.315C517.063 422.832 513.043 404.951 499.639 396.039zM494.058 427.868l-26.001 43.341c-5.745 9.832-15.072 17.061-26.027 20.173-52.497 14.413-144.213 2.475-283.008-136.32S8.29 124.559 22.703 72.054c3.116-10.968 10.354-20.307 20.198-26.061l43.341-26.001c5.983-3.6 13.739-1.855 17.604 3.959l37.547 56.371 31.514 47.266c3.774 5.707 2.534 13.356-2.85 17.579l-38.801 30.182c-11.808 9.029-15.18 25.366-7.91 38.332l3.081 5.598c10.906 20.002 24.465 44.885 73.967 94.379 49.502 49.493 74.377 63.053 94.37 73.958l5.606 3.089c12.965 7.269 29.303 3.898 38.332-7.91l30.182-38.801c4.224-5.381 11.87-6.62 17.579-2.85l103.637 69.12C495.918 414.126 497.663 421.886 494.058 427.868z"/><path d="M291.161 86.39c80.081.089 144.977 64.986 145.067 145.067 0 4.713 3.82 8.533 8.533 8.533s8.533-3.82 8.533-8.533c-.099-89.503-72.63-162.035-162.133-162.133-4.713 0-8.533 3.82-8.533 8.533S286.448 86.39 291.161 86.39z"/><path d="M291.161 137.59c51.816.061 93.806 42.051 93.867 93.867 0 4.713 3.821 8.533 8.533 8.533 4.713 0 8.533-3.82 8.533-8.533-.071-61.238-49.696-110.863-110.933-110.933-4.713 0-8.533 3.82-8.533 8.533S286.448 137.59 291.161 137.59z"/><path d="M291.161 188.79c23.552.028 42.638 19.114 42.667 42.667 0 4.713 3.821 8.533 8.533 8.533s8.533-3.82 8.533-8.533c-.038-32.974-26.759-59.696-59.733-59.733-4.713 0-8.533 3.82-8.533 8.533S286.448 188.79 291.161 188.79z"/></g></g></g><g/><g/><g/><g/><g/><g/><g/><g/><g/><g/><g/><g/><g/><g/><g/></symbol><symbol id="play" viewBox="0 0 512 512"><g><g><path d="M477.606 128.055C443.431 68.863 388.251 26.52 322.229 8.83 256.208-8.862 187.25.217 128.055 34.394 68.861 68.57 26.52 123.75 8.83 189.772c-17.69 66.021-8.611 134.981 25.564 194.173C68.568 443.137 123.75 485.48 189.771 503.17c22.046 5.908 44.417 8.83 66.646 8.83 44.339 0 88.101-11.629 127.529-34.393 59.192-34.175 101.535-89.355 119.225-155.377C520.862 256.207 511.781 187.249 477.606 128.055zM477.429 315.333c-15.848 59.146-53.78 108.581-106.81 139.197-53.028 30.617-114.806 38.749-173.952 22.903-59.147-15.848-108.581-53.78-139.198-106.81-30.616-53.028-38.749-114.807-22.9-173.954C50.418 137.523 88.35 88.09 141.379 57.472c35.325-20.395 74.524-30.812 114.249-30.812 19.91 0 39.959 2.618 59.702 7.909 59.146 15.848 108.581 53.78 139.197 106.81C485.144 194.408 493.278 256.186 477.429 315.333z"/></g></g><g><g><path d="M378.778 231.852l-164.526-94.99c-8.731-5.041-19.155-5.039-27.886-.001-8.731 5.04-13.944 14.069-13.944 24.15v189.98c0 10.081 5.212 19.109 13.944 24.15 4.365 2.521 9.152 3.78 13.941 3.78 4.79 0 9.579-1.262 13.944-3.781l164.528-94.989c8.73-5.042 13.941-14.07 13.941-24.151C392.72 245.92 387.508 236.892 378.778 231.852zM365.452 257.074l-164.527 94.989c-.201.117-.62.358-1.236 0-.618-.357-.618-.839-.618-1.071v-189.98c0-.232 0-.714.618-1.071.242-.14.453-.188.633-.188.28 0 .482.117.605.188l164.526 94.99c.201.116.618.357.618 1.071C366.071 256.716 365.652 256.958 365.452 257.074z"/></g></g><g><g><path d="M413.303 134.44c-31.689-40.938-79.326-68.442-130.698-75.461-7.283-.997-14.009 4.106-15.006 11.399-.995 7.291 4.108 14.009 11.399 15.006 44.512 6.081 85.783 29.909 113.232 65.369 2.626 3.392 6.565 5.168 10.546 5.168 2.849 0 5.72-.909 8.146-2.789C416.741 148.628 417.807 140.259 413.303 134.44z"/></g></g><g/><g/><g/><g/><g/><g/><g/><g/><g/><g/><g/><g/><g/><g/><g/></symbol><symbol id="right-arrow" viewBox="0 0 490.8 490.8"><g><path style="fill:#009688;" d="M231.696 3.128c-4.237-4.093-10.99-3.975-15.083.262-3.992 4.134-3.992 10.687 0 14.82l227.115 227.136L216.592 472.461c-4.237 4.093-4.355 10.845-.262 15.083 4.093 4.237 10.845 4.354 15.083.262.089-.086.176-.173.262-.262l234.667-234.667c4.164-4.165 4.164-10.917 0-15.083L231.696 3.128z"/><path style="fill:#009688;" d="M274.363 237.795 39.696 3.128c-4.237-4.093-10.99-3.975-15.083.262-3.992 4.134-3.992 10.687 0 14.821l227.115 227.136L24.592 472.461c-4.237 4.093-4.354 10.845-.262 15.083 4.093 4.237 10.845 4.354 15.083.262.089-.086.176-.173.262-.262l234.667-234.667C278.511 248.718 278.521 241.966 274.363 237.795z"/></g><path d="M224.144 490.68c-5.891.011-10.675-4.757-10.686-10.648-.005-2.84 1.123-5.565 3.134-7.571l227.136-227.115L216.592 18.232c-4.093-4.237-3.975-10.99.262-15.083 4.134-3.992 10.687-3.992 14.82 0l234.667 234.667c4.164 4.165 4.164 10.917 0 15.083L231.675 487.565C229.676 489.56 226.968 490.68 224.144 490.68z"/><path d="M32.144 490.68c-5.891.011-10.675-4.757-10.686-10.648-.005-2.84 1.123-5.565 3.134-7.571l227.136-227.115L24.592 18.232c-4.171-4.171-4.171-10.933 0-15.104s10.933-4.171 15.104 0l234.667 234.667c4.164 4.165 4.164 10.917 0 15.083L39.696 487.544C37.695 489.551 34.978 490.68 32.144 490.68z"/><g/><g/><g/><g/><g/><g/><g/><g/><g/><g/><g/><g/><g/><g/><g/></symbol><symbol id="sprites"><symbol id="location" viewBox="0 0 512 512"><g><g><path d="M256 0C156.748 0 76 80.748 76 180c0 33.534 9.289 66.26 26.869 94.652l142.885 230.257c2.737 4.411 7.559 7.091 12.745 7.091.04 0 .079 0 .119 0 5.231-.041 10.063-2.804 12.75-7.292L410.611 272.22C427.221 244.428 436 212.539 436 180 436 80.748 355.252 0 256 0zM384.866 256.818 258.272 468.186l-129.905-209.34C113.734 235.214 105.8 207.95 105.8 180c0-82.71 67.49-150.2 150.2-150.2S406.1 97.29 406.1 180C406.1 207.121 398.689 233.688 384.866 256.818z"/></g></g><g><g><path d="M256 90c-49.626 0-90 40.374-90 90 0 49.309 39.717 90 90 90 50.903 0 90-41.233 90-90C346 130.374 305.626 90 256 90zM256 240.2c-33.257 0-60.2-27.033-60.2-60.2 0-33.084 27.116-60.2 60.2-60.2s60.1 27.116 60.1 60.2C316.1 212.683 289.784 240.2 256 240.2z"/></g></g><g/><g/><g/><g/><g/><g/><g/><g/><g/><g/><g/><g/><g/><g/><g/></symbol><symbol id="phone" viewBox="0 0 512.076 512.076"><g transform="translate(-1 -1)"><g><g><path d="M499.639 396.039l-103.646-69.12c-13.153-8.701-30.784-5.838-40.508 6.579l-30.191 38.818c-3.88 5.116-10.933 6.6-16.546 3.482l-5.743-3.166c-19.038-10.377-42.726-23.296-90.453-71.04s-60.672-71.45-71.049-90.453l-3.149-5.743c-3.161-5.612-1.705-12.695 3.413-16.606l38.792-30.182c12.412-9.725 15.279-27.351 6.588-40.508l-69.12-103.646C109.12 1.056 91.25-2.966 77.461 5.323L34.12 31.358C20.502 39.364 10.511 52.33 6.242 67.539c-15.607 56.866-3.866 155.008 140.706 299.597 115.004 114.995 200.619 145.92 259.465 145.92 13.543.058 27.033-1.704 40.107-5.239 15.212-4.264 28.18-14.256 36.181-27.878l26.061-43.315C517.063 422.832 513.043 404.951 499.639 396.039zM494.058 427.868l-26.001 43.341c-5.745 9.832-15.072 17.061-26.027 20.173-52.497 14.413-144.213 2.475-283.008-136.32S8.29 124.559 22.703 72.054c3.116-10.968 10.354-20.307 20.198-26.061l43.341-26.001c5.983-3.6 13.739-1.855 17.604 3.959l37.547 56.371 31.514 47.266c3.774 5.707 2.534 13.356-2.85 17.579l-38.801 30.182c-11.808 9.029-15.18 25.366-7.91 38.332l3.081 5.598c10.906 20.002 24.465 44.885 73.967 94.379 49.502 49.493 74.377 63.053 94.37 73.958l5.606 3.089c12.965 7.269 29.303 3.898 38.332-7.91l30.182-38.801c4.224-5.381 11.87-6.62 17.579-2.85l103.637 69.12C495.918 414.126 497.663 421.886 494.058 427.868z"/><path d="M291.161 86.39c80.081.089 144.977 64.986 145.067 145.067 0 4.713 3.82 8.533 8.533 8.533s8.533-3.82 8.533-8.533c-.099-89.503-72.63-162.035-162.133-162.133-4.713 0-8.533 3.82-8.533 8.533S286.448 86.39 291.161 86.39z"/><path d="M291.161 137.59c51.816.061 93.806 42.051 93.867 93.867 0 4.713 3.821 8.533 8.533 8.533 4.713 0 8.533-3.82 8.533-8.533-.071-61.238-49.696-110.863-110.933-110.933-4.713 0-8.533 3.82-8.533 8.533S286.448 137.59 291.161 137.59z"/><path d="M291.161 188.79c23.552.028 42.638 19.114 42.667 42.667 0 4.713 3.821 8.533 8.533 8.533s8.533-3.82 8.533-8.533c-.038-32.974-26.759-59.696-59.733-59.733-4.713 0-8.533 3.82-8.533 8.533S286.448 188.79 291.161 188.79z"/></g></g></g><g/><g/><g/><g/><g/><g/><g/><g/><g/><g/><g/><g/><g/><g/><g/></symbol><symbol id="play" viewBox="0 0 512 512"><g><g><path d="M477.606 128.055C443.431 68.863 388.251 26.52 322.229 8.83 256.208-8.862 187.25.217 128.055 34.394 68.861 68.57 26.52 123.75 8.83 189.772c-17.69 66.021-8.611 134.981 25.564 194.173C68.568 443.137 123.75 485.48 189.771 503.17c22.046 5.908 44.417 8.83 66.646 8.83 44.339 0 88.101-11.629 127.529-34.393 59.192-34.175 101.535-89.355 119.225-155.377C520.862 256.207 511.781 187.249 477.606 128.055zM477.429 315.333c-15.848 59.146-53.78 108.581-106.81 139.197-53.028 30.617-114.806 38.749-173.952 22.903-59.147-15.848-108.581-53.78-139.198-106.81-30.616-53.028-38.749-114.807-22.9-173.954C50.418 137.523 88.35 88.09 141.379 57.472c35.325-20.395 74.524-30.812 114.249-30.812 19.91 0 39.959 2.618 59.702 7.909 59.146 15.848 108.581 53.78 139.197 106.81C485.144 194.408 493.278 256.186 477.429 315.333z"/></g></g><g><g><path d="M378.778 231.852l-164.526-94.99c-8.731-5.041-19.155-5.039-27.886-.001-8.731 5.04-13.944 14.069-13.944 24.15v189.98c0 10.081 5.212 19.109 13.944 24.15 4.365 2.521 9.152 3.78 13.941 3.78 4.79 0 9.579-1.262 13.944-3.781l164.528-94.989c8.73-5.042 13.941-14.07 13.941-24.151C392.72 245.92 387.508 236.892 378.778 231.852zM365.452 257.074l-164.527 94.989c-.201.117-.62.358-1.236 0-.618-.357-.618-.839-.618-1.071v-189.98c0-.232 0-.714.618-1.071.242-.14.453-.188.633-.188.28 0 .482.117.605.188l164.526 94.99c.201.116.618.357.618 1.071C366.071 256.716 365.652 256.958 365.452 257.074z"/></g></g><g><g><path d="M413.303 134.44c-31.689-40.938-79.326-68.442-130.698-75.461-7.283-.997-14.009 4.106-15.006 11.399-.995 7.291 4.108 14.009 11.399 15.006 44.512 6.081 85.783 29.909 113.232 65.369 2.626 3.392 6.565 5.168 10.546 5.168 2.849 0 5.72-.909 8.146-2.789C416.741 148.628 417.807 140.259 413.303 134.44z"/></g></g><g/><g/><g/><g/><g/><g/><g/><g/><g/><g/><g/><g/><g/><g/><g/></symbol><symbol id="right-arrow" viewBox="0 0 490.8 490.8"><g><path style="fill:#009688;" d="M231.696 3.128c-4.237-4.093-10.99-3.975-15.083.262-3.992 4.134-3.992 10.687 0 14.82l227.115 227.136L216.592 472.461c-4.237 4.093-4.355 10.845-.262 15.083 4.093 4.237 10.845 4.354 15.083.262.089-.086.176-.173.262-.262l234.667-234.667c4.164-4.165 4.164-10.917 0-15.083L231.696 3.128z"/><path style="fill:#009688;" d="M274.363 237.795 39.696 3.128c-4.237-4.093-10.99-3.975-15.083.262-3.992 4.134-3.992 10.687 0 14.821l227.115 227.136L24.592 472.461c-4.237 4.093-4.354 10.845-.262 15.083 4.093 4.237 10.845 4.354 15.083.262.089-.086.176-.173.262-.262l234.667-234.667C278.511 248.718 278.521 241.966 274.363 237.795z"/></g><path d="M224.144 490.68c-5.891.011-10.675-4.757-10.686-10.648-.005-2.84 1.123-5.565 3.134-7.571l227.136-227.115L216.592 18.232c-4.093-4.237-3.975-10.99.262-15.083 4.134-3.992 10.687-3.992 14.82 0l234.667 234.667c4.164 4.165 4.164 10.917 0 15.083L231.675 487.565C229.676 489.56 226.968 490.68 224.144 490.68z"/><path d="M32.144 490.68c-5.891.011-10.675-4.757-10.686-10.648-.005-2.84 1.123-5.565 3.134-7.571l227.136-227.115L24.592 18.232c-4.171-4.171-4.171-10.933 0-15.104s10.933-4.171 15.104 0l234.667 234.667c4.164 4.165 4.164 10.917 0 15.083L39.696 487.544C37.695 489.551 34.978 490.68 32.144 490.68z"/><g/><g/><g/><g/><g/><g/><g/><g/><g/><g/><g/><g/><g/><g/><g/></symbol><symbol id="sprites"><symbol id="play" viewBox="0 0 512 512"><g><g><path d="M477.606 128.055C443.431 68.863 388.251 26.52 322.229 8.83 256.208-8.862 187.25.217 128.055 34.394 68.861 68.57 26.52 123.75 8.83 189.772c-17.69 66.021-8.611 134.981 25.564 194.173C68.568 443.137 123.75 485.48 189.771 503.17c22.046 5.908 44.417 8.83 66.646 8.83 44.339 0 88.101-11.629 127.529-34.393 59.192-34.175 101.535-89.355 119.225-155.377C520.862 256.207 511.781 187.249 477.606 128.055zM477.429 315.333c-15.848 59.146-53.78 108.581-106.81 139.197-53.028 30.617-114.806 38.749-173.952 22.903-59.147-15.848-108.581-53.78-139.198-106.81-30.616-53.028-38.749-114.807-22.9-173.954C50.418 137.523 88.35 88.09 141.379 57.472c35.325-20.395 74.524-30.812 114.249-30.812 19.91 0 39.959 2.618 59.702 7.909 59.146 15.848 108.581 53.78 139.197 106.81C485.144 194.408 493.278 256.186 477.429 315.333z"/></g></g><g><g><path d="M378.778 231.852l-164.526-94.99c-8.731-5.041-19.155-5.039-27.886-.001-8.731 5.04-13.944 14.069-13.944 24.15v189.98c0 10.081 5.212 19.109 13.944 24.15 4.365 2.521 9.152 3.78 13.941 3.78 4.79 0 9.579-1.262 13.944-3.781l164.528-94.989c8.73-5.042 13.941-14.07 13.941-24.151C392.72 245.92 387.508 236.892 378.778 231.852zM365.452 257.074l-164.527 94.989c-.201.117-.62.358-1.236 0-.618-.357-.618-.839-.618-1.071v-189.98c0-.232 0-.714.618-1.071.242-.14.453-.188.633-.188.28 0 .482.117.605.188l164.526 94.99c.201.116.618.357.618 1.071C366.071 256.716 365.652 256.958 365.452 257.074z"/></g></g><g><g><path d="M413.303 134.44c-31.689-40.938-79.326-68.442-130.698-75.461-7.283-.997-14.009 4.106-15.006 11.399-.995 7.291 4.108 14.009 11.399 15.006 44.512 6.081 85.783 29.909 113.232 65.369 2.626 3.392 6.565 5.168 10.546 5.168 2.849 0 5.72-.909 8.146-2.789C416.741 148.628 417.807 140.259 413.303 134.44z"/></g></g><g/><g/><g/><g/><g/><g/><g/><g/><g/><g/><g/><g/><g/><g/><g/></symbol></symbol><symbol id="up-arrow" viewBox="0 0 240.835 240.835"><g><path id="Expand_Less" d="M129.007 57.819c-4.68-4.68-12.499-4.68-17.191 0L3.555 165.803c-4.74 4.74-4.74 12.427 0 17.155 4.74 4.74 12.439 4.74 17.179 0l99.683-99.406 99.671 99.418c4.752 4.74 12.439 4.74 17.191 0 4.74-4.74 4.74-12.427 0-17.155L129.007 57.819z"/><g/><g/><g/><g/><g/><g/></g><g/><g/><g/><g/><g/><g/><g/><g/><g/><g/><g/><g/><g/><g/><g/></symbol></symbol><symbol id="up-arrow" viewBox="0 0 240.835 240.835"><g><path id="Expand_Less" d="M129.007 57.819c-4.68-4.68-12.499-4.68-17.191 0L3.555 165.803c-4.74 4.74-4.74 12.427 0 17.155 4.74 4.74 12.439 4.74 17.179 0l99.683-99.406 99.671 99.418c4.752 4.74 12.439 4.74 17.191 0 4.74-4.74 4.74-12.427 0-17.155L129.007 57.819z"/><g/><g/><g/><g/><g/><g/></g><g/><g/><g/><g/><g/><g/><g/><g/><g/><g/><g/><g/><g/><g/><g/></symbol></symbol><symbol id="up-arrow" viewBox="0 0 240.835 240.835"><g><path id="Expand_Less" d="M129.007 57.819c-4.68-4.68-12.499-4.68-17.191 0L3.555 165.803c-4.74 4.74-4.74 12.427 0 17.155 4.74 4.74 12.439 4.74 17.179 0l99.683-99.406 99.671 99.418c4.752 4.74 12.439 4.74 17.191 0 4.74-4.74 4.74-12.427 0-17.155L129.007 57.819z"/><g/><g/><g/><g/><g/><g/></g><g/><g/><g/><g/><g/><g/><g/><g/><g/><g/><g/><g/><g/><g/><g/></symbol><symbol id="youtube" viewBox="0 -77 512.00213 512"><path d="m501.453125 56.09375c-5.902344-21.933594-23.195313-39.222656-45.125-45.128906-40.066406-10.964844-200.332031-10.964844-200.332031-10.964844s-160.261719 0-200.328125 10.546875c-21.507813 5.902344-39.222657 23.617187-45.125 45.546875-10.542969 40.0625-10.542969 123.148438-10.542969 123.148438s0 83.503906 10.542969 123.148437c5.90625 21.929687 23.195312 39.222656 45.128906 45.128906 40.484375 10.964844 200.328125 10.964844 200.328125 10.964844s160.261719 0 200.328125-10.546875c21.933594-5.902344 39.222656-23.195312 45.128906-45.125 10.542969-40.066406 10.542969-123.148438 10.542969-123.148438s.421875-83.507812-10.546875-123.570312zm0 0" fill="#f00"/><path d="m204.96875 256 133.269531-76.757812-133.269531-76.757813zm0 0" fill="#fff"/></symbol></symbol><symbol id="up-arrow" viewBox="0 0 240.835 240.835"><g><path id="Expand_Less" d="M129.007 57.819c-4.68-4.68-12.499-4.68-17.191 0L3.555 165.803c-4.74 4.74-4.74 12.427 0 17.155 4.74 4.74 12.439 4.74 17.179 0l99.683-99.406 99.671 99.418c4.752 4.74 12.439 4.74 17.191 0 4.74-4.74 4.74-12.427 0-17.155L129.007 57.819z"/><g></g><g></g><g></g><g></g><g></g><g></g></g><g></g><g></g><g></g><g></g><g></g><g></g><g></g><g></g><g></g><g></g><g></g><g></g><g></g><g></g><g></g></symbol><symbol id="youtube" viewBox="0 -77 512.00213 512"><path d="m501.453125 56.09375c-5.902344-21.933594-23.195313-39.222656-45.125-45.128906-40.066406-10.964844-200.332031-10.964844-200.332031-10.964844s-160.261719 0-200.328125 10.546875c-21.507813 5.902344-39.222657 23.617187-45.125 45.546875-10.542969 40.0625-10.542969 123.148438-10.542969 123.148438s0 83.503906 10.542969 123.148437c5.90625 21.929687 23.195312 39.222656 45.128906 45.128906 40.484375 10.964844 200.328125 10.964844 200.328125 10.964844s160.261719 0 200.328125-10.546875c21.933594-5.902344 39.222656-23.195312 45.128906-45.125 10.542969-40.066406 10.542969-123.148438 10.542969-123.148438s.421875-83.507812-10.546875-123.570312zm0 0" fill="#f00"/><path d="m204.96875 256 133.269531-76.757812-133.269531-76.757813zm0 0" fill="#fff"/></symbol></svg>